<svg xmlns="http://www.w3.org/2000/svg" width="36.971" height="36.971" viewBox="0 0 36.971 36.971">
  <g id="Group_59" data-name="Group 59" transform="translate(-477.09 -220.797)">
    <path id="Path_39" data-name="Path 39" d="M495.575,257.768a4.026,4.026,0,0,1-4.011-3.755A15.171,15.171,0,0,1,488,252.532a4.02,4.02,0,0,1-5.673-5.673,15.136,15.136,0,0,1-1.481-3.566,4.02,4.02,0,0,1,0-8.022,15.129,15.129,0,0,1,1.481-3.565A4.02,4.02,0,0,1,488,226.033a15.128,15.128,0,0,1,3.565-1.481,4.02,4.02,0,0,1,8.022,0,15.135,15.135,0,0,1,3.566,1.481,4.02,4.02,0,0,1,5.673,5.673,15.17,15.17,0,0,1,1.481,3.565,4.02,4.02,0,0,1,0,8.022,15.178,15.178,0,0,1-1.481,3.566,4.02,4.02,0,0,1-5.673,5.673,15.179,15.179,0,0,1-3.566,1.481A4.024,4.024,0,0,1,495.575,257.768Zm-7.725-7.078a.808.808,0,0,1,.432.125,13.54,13.54,0,0,0,4.295,1.784.808.808,0,0,1,.626.879c0,.041-.01.082-.016.123a1.338,1.338,0,0,0-.015.147,2.4,2.4,0,1,0,4.807,0,1.407,1.407,0,0,0-.016-.148c-.005-.041-.011-.081-.016-.121a.809.809,0,0,1,.627-.88,13.525,13.525,0,0,0,4.294-1.784.808.808,0,0,1,1.066.181c.025.031.049.062.073.094a1.373,1.373,0,0,0,.1.121,2.4,2.4,0,0,0,3.4-3.4,1.376,1.376,0,0,0-.121-.1c-.032-.024-.064-.048-.1-.073a.81.81,0,0,1-.18-1.066,13.525,13.525,0,0,0,1.784-4.294.809.809,0,0,1,.88-.626q.06.006.12.015a1.422,1.422,0,0,0,.149.016,2.4,2.4,0,1,0,0-4.807,1.345,1.345,0,0,0-.147.015c-.041.006-.082.012-.123.016a.809.809,0,0,1-.879-.626,13.54,13.54,0,0,0-1.784-4.295.809.809,0,0,1,.181-1.066l.093-.071a1.416,1.416,0,0,0,.123-.1,2.4,2.4,0,0,0-3.4-3.4,1.373,1.373,0,0,0-.1.121c-.024.031-.048.063-.073.094a.807.807,0,0,1-1.066.18,13.546,13.546,0,0,0-4.294-1.783.81.81,0,0,1-.627-.88c.005-.04.011-.081.016-.121a1.394,1.394,0,0,0,.016-.149,2.4,2.4,0,0,0-4.807,0,1.352,1.352,0,0,0,.015.148c.006.041.012.082.016.123a.81.81,0,0,1-.626.879,13.56,13.56,0,0,0-4.295,1.783.806.806,0,0,1-1.065-.18c-.025-.031-.049-.063-.073-.094-.038-.049-.073-.1-.1-.121a2.4,2.4,0,1,0-3.4,3.4,1.43,1.43,0,0,0,.122.1l.092.071a.807.807,0,0,1,.181,1.066,13.561,13.561,0,0,0-1.783,4.295.81.81,0,0,1-.879.626c-.041,0-.082-.01-.123-.016a1.359,1.359,0,0,0-.148-.015,2.4,2.4,0,0,0,0,4.807,1.436,1.436,0,0,0,.15-.016c.04-.006.079-.011.119-.015a.809.809,0,0,1,.881.626,13.523,13.523,0,0,0,1.783,4.294.807.807,0,0,1-.18,1.066l-.094.073a1.122,1.122,0,0,0-.122.1,2.4,2.4,0,0,0,3.4,3.4c.025-.025.06-.072.1-.121l.072-.094A.809.809,0,0,1,487.85,250.69Zm7.725-1a10.406,10.406,0,1,1,10.406-10.406A10.418,10.418,0,0,1,495.575,249.688Zm0-19.2a8.79,8.79,0,1,0,8.79,8.79A8.8,8.8,0,0,0,495.575,230.492Z"/>
  </g>
</svg>
